<svg width="228" height="162" viewBox="0 0 228 162" fill="none" xmlns="http://www.w3.org/2000/svg">
<path d="M12.0111 77.432V65.048H61.3551V77.432H12.0111ZM52.6191 39.8H66.3471V107H52.6191V39.8ZM7.49913 39.8H21.2271V107H7.49913V39.8ZM114.316 62.36L98.8596 104.12H83.2116L114.316 36.44L145.42 104.12H129.772L114.316 62.36ZM137.932 107H90.6996V117.56H77.3556V95H151.276V117.56H137.932V107ZM175.155 91.736L176.787 80.888H209.043L210.675 91.736H175.155ZM192.723 61.592L182.643 84.728L182.931 87.8L174.099 107H158.643L192.723 35.864L226.803 107H211.251L202.611 88.376L202.803 84.92L192.723 61.592Z" fill="#3391C5"/>
<rect x="4" y="149" width="220" height="9" fill="#3391C5"/>
<rect x="4" width="220" height="9" fill="#3391C5"/>
</svg>
